<svg width="172" height="50" viewBox="0 0 172 50" fill="none" xmlns="http://www.w3.org/2000/svg">
<path fill-rule="evenodd" clip-rule="evenodd" d="M59.8615 21.7181C57.2291 21.7181 54.8936 19.799 54.8936 16.8604C54.8936 13.9018 57.2291 11.9827 59.8615 11.9827C62.494 11.9827 64.8295 13.9018 64.8295 16.8604C64.8295 19.799 62.494 21.7181 59.8615 21.7181ZM59.8617 19.2793C61.1483 19.2793 62.1973 18.2997 62.1973 16.8604C62.1973 15.4011 61.1483 14.4216 59.8617 14.4216C58.5752 14.4216 57.5262 15.4011 57.5262 16.8604C57.5262 18.2997 58.5752 19.2793 59.8617 19.2793ZM71.4564 11.9827C73.8316 11.9827 75.989 13.8618 75.989 16.8604C75.989 19.859 73.8316 21.7181 71.4564 21.7181C70.4074 21.7181 69.1407 21.3183 68.4875 20.3788V26.116H65.8947V12.2226H68.4875V13.3421C69.1407 12.4025 70.4074 11.9827 71.4564 11.9827ZM70.9614 19.2593C72.2677 19.2593 73.3365 18.2397 73.3365 16.8604C73.3365 15.501 72.2677 14.4415 70.9614 14.4415C69.6947 14.4415 68.5665 15.4411 68.5665 16.8604C68.5665 18.2997 69.7541 19.2593 70.9614 19.2593ZM86.2179 16.7205C86.2179 16.9804 86.1981 17.3002 86.1783 17.72H79.2113C79.4884 18.7995 80.3593 19.3992 81.6062 19.3992C82.5365 19.3992 83.4667 19.0194 84.0209 18.3597L85.545 19.899C84.6741 21.0784 83.0511 21.7181 81.4281 21.7181C78.5977 21.7181 76.5195 19.7591 76.5195 16.8804C76.5195 13.8618 78.7758 11.9827 81.4281 11.9827C84.0605 11.9827 86.2179 13.8618 86.2179 16.7205ZM79.2113 16.0208H83.6251C83.5459 14.9213 82.6354 14.2616 81.4676 14.2616C80.4186 14.2616 79.4884 14.7614 79.2113 16.0208ZM92.6071 11.9827C91.6966 11.9827 90.2319 12.5225 89.8361 13.7819V12.2226H87.2432V21.5382H89.8361V16.7605C89.8361 15.0613 90.9841 14.5615 91.9143 14.5615C92.805 14.5615 93.6759 15.2212 93.6759 16.7005V21.5382H96.2687V16.4206C96.2885 13.622 95.0218 11.9827 92.6071 11.9827ZM103.191 12.0027C105.566 12.0027 107.724 13.8618 107.724 16.8604C107.724 19.859 105.566 21.7181 103.191 21.7181C102.142 21.7181 100.875 21.3183 100.222 20.3787V21.5382H97.6293V7.24495H100.222V13.3421C100.875 12.4025 102.142 12.0027 103.191 12.0027ZM102.696 19.2793C104.003 19.2793 105.072 18.2198 105.072 16.8604C105.072 15.4811 104.003 14.4616 102.696 14.4616C101.489 14.4616 100.301 15.4211 100.301 16.8604C100.301 18.2797 101.43 19.2793 102.696 19.2793ZM115.736 12.2226H118.329V21.5382H115.736V20.3787C115.083 21.2983 113.796 21.7181 112.767 21.7181C110.392 21.7181 108.234 19.859 108.234 16.8604C108.234 13.8618 110.392 12.0027 112.767 12.0027C113.836 12.0027 115.083 12.4025 115.736 13.3421V12.2226ZM113.262 19.2793C114.529 19.2793 115.657 18.2797 115.657 16.8604C115.657 15.4211 114.469 14.4616 113.262 14.4616C111.956 14.4616 110.867 15.4811 110.867 16.8604C110.867 18.2198 111.956 19.2793 113.262 19.2793ZM125.925 12.2226H128.716L123.016 26.116H120.245L122.422 20.6586L118.78 12.2226H121.63L123.808 17.6001L125.925 12.2226ZM138.035 16.7205C138.035 16.9804 138.015 17.3002 137.995 17.72H131.028C131.305 18.7995 132.176 19.3992 133.423 19.3992C134.353 19.3992 135.284 19.0194 135.838 18.3597L137.362 19.899C136.491 21.0784 134.868 21.7181 133.245 21.7181C130.415 21.7181 128.336 19.7591 128.336 16.8804C128.336 13.8618 130.593 11.9827 133.245 11.9827C135.877 11.9827 138.035 13.8618 138.035 16.7205ZM131.028 16.0208H135.442C135.363 14.9213 134.452 14.2616 133.284 14.2616C132.235 14.2616 131.305 14.7614 131.028 16.0208ZM142.326 21.7181C144.226 21.7181 146.205 20.7586 146.205 18.7995C146.205 18.0399 145.928 16.6405 143.711 16.0408L142.187 15.641C141.673 15.5011 141.277 15.2812 141.277 14.8414C141.277 14.3616 141.752 14.0617 142.346 14.0617C142.959 14.0617 143.474 14.4016 143.474 15.0213H145.948C145.968 12.8223 143.989 11.9827 142.306 11.9827C140.169 11.9827 138.684 13.3221 138.684 14.7614C138.684 15.741 139.001 17.0803 141.376 17.72L142.603 18.0199C143.296 18.1998 143.612 18.3997 143.612 18.7995C143.612 19.3393 143.039 19.6591 142.286 19.6591C141.376 19.6591 140.921 19.0794 140.921 18.5396H138.486C138.506 20.5987 140.386 21.7181 142.326 21.7181Z" fill="#080930"/>
<path d="M57.7303 32.2843C57.9332 31.9677 58.2132 31.712 58.5704 31.5172C58.9275 31.3224 59.3455 31.225 59.8244 31.225C60.3844 31.225 60.8917 31.3671 61.3462 31.6512C61.8008 31.9352 62.1579 32.3411 62.4176 32.8686C62.6855 33.3962 62.8194 34.009 62.8194 34.7071C62.8194 35.4051 62.6855 36.0219 62.4176 36.5576C62.1579 37.0852 61.8008 37.4951 61.3462 37.7873C60.8917 38.0714 60.3844 38.2134 59.8244 38.2134C59.3536 38.2134 58.9356 38.116 58.5704 37.9212C58.2132 37.7264 57.9332 37.4748 57.7303 37.1664V41.3545H55.6484V31.3224H57.7303V32.2843ZM60.701 34.7071C60.701 34.1876 60.5549 33.7818 60.2627 33.4896C59.9786 33.1893 59.6255 33.0391 59.2035 33.0391C58.7895 33.0391 58.4364 33.1893 58.1443 33.4896C57.8602 33.7899 57.7181 34.1998 57.7181 34.7192C57.7181 35.2387 57.8602 35.6486 58.1443 35.9489C58.4364 36.2492 58.7895 36.3994 59.2035 36.3994C59.6174 36.3994 59.9705 36.2492 60.2627 35.9489C60.5549 35.6405 60.701 35.2265 60.701 34.7071ZM65.4862 32.4547C65.7297 32.0813 66.0341 31.7891 66.3994 31.5781C66.7646 31.359 67.1704 31.2494 67.6169 31.2494V33.453H67.0446C66.5252 33.453 66.1356 33.5667 65.8758 33.7939C65.6161 34.0131 65.4862 34.4027 65.4862 34.9627V38.116H63.4043V31.3224H65.4862V32.4547ZM71.1971 38.2134C70.5315 38.2134 69.9309 38.0714 69.3952 37.7873C68.8676 37.5032 68.4496 37.0974 68.1412 36.5698C67.8409 36.0422 67.6907 35.4254 67.6907 34.7192C67.6907 34.0212 67.8449 33.4084 68.1534 32.8808C68.4618 32.3451 68.8839 31.9352 69.4196 31.6512C69.9553 31.3671 70.5559 31.225 71.2214 31.225C71.887 31.225 72.4876 31.3671 73.0233 31.6512C73.559 31.9352 73.9811 32.3451 74.2895 32.8808C74.5979 33.4084 74.7522 34.0212 74.7522 34.7192C74.7522 35.4173 74.5939 36.0341 74.2773 36.5698C73.9689 37.0974 73.5428 37.5032 72.999 37.7873C72.4633 38.0714 71.8627 38.2134 71.1971 38.2134ZM71.1971 36.4115C71.5948 36.4115 71.9316 36.2654 72.2076 35.9732C72.4917 35.681 72.6337 35.263 72.6337 34.7192C72.6337 34.1754 72.4958 33.7574 72.2198 33.4652C71.9519 33.173 71.6192 33.0269 71.2214 33.0269C70.8156 33.0269 70.4788 33.173 70.2109 33.4652C69.9431 33.7493 69.8092 34.1673 69.8092 34.7192C69.8092 35.263 69.939 35.681 70.1988 35.9732C70.4666 36.2654 70.7994 36.4115 71.1971 36.4115ZM76.3842 30.6163C76.019 30.6163 75.7187 30.5108 75.4833 30.2997C75.256 30.0806 75.1424 29.8128 75.1424 29.4962C75.1424 29.1715 75.256 28.9037 75.4833 28.6927C75.7187 28.4735 76.019 28.3639 76.3842 28.3639C76.7414 28.3639 77.0336 28.4735 77.2608 28.6927C77.4962 28.9037 77.6139 29.1715 77.6139 29.4962C77.6139 29.8128 77.4962 30.0806 77.2608 30.2997C77.0336 30.5108 76.7414 30.6163 76.3842 30.6163ZM77.4313 38.9926C77.4313 39.8286 77.2202 40.4293 76.7982 40.7945C76.3761 41.1679 75.7877 41.3545 75.0328 41.3545H74.2171V39.5892H74.7163C74.9435 39.5892 75.1059 39.5445 75.2033 39.4553C75.3007 39.366 75.3494 39.2199 75.3494 39.017V31.3224H77.4313V38.9926ZM84.8248 34.6097C84.8248 34.8045 84.8127 35.0074 84.7883 35.2184H80.0766C80.1091 35.6405 80.243 35.9651 80.4784 36.1924C80.7219 36.4115 81.0181 36.5211 81.3672 36.5211C81.8866 36.5211 82.2478 36.302 82.4507 35.8637H84.6666C84.5529 36.3101 84.3459 36.7119 84.0456 37.069C83.7534 37.4261 83.3841 37.7061 82.9377 37.9091C82.4913 38.112 81.9921 38.2134 81.4402 38.2134C80.7746 38.2134 80.1821 38.0714 79.6627 37.7873C79.1432 37.5032 78.7374 37.0974 78.4452 36.5698C78.153 36.0422 78.0069 35.4254 78.0069 34.7192C78.0069 34.0131 78.1489 33.3962 78.433 32.8686C78.7252 32.3411 79.131 31.9352 79.6505 31.6512C80.17 31.3671 80.7665 31.225 81.4402 31.225C82.0977 31.225 82.682 31.363 83.1934 31.639C83.7047 31.915 84.1024 32.3086 84.3865 32.82C84.6787 33.3313 84.8248 33.9279 84.8248 34.6097ZM82.6942 34.0618C82.6942 33.7047 82.5725 33.4206 82.329 33.2095C82.0855 32.9985 81.7811 32.893 81.4159 32.893C81.0668 32.893 80.7706 32.9945 80.5271 33.1974C80.2917 33.4003 80.1456 33.6884 80.0888 34.0618H82.6942ZM85.0019 34.7192C85.0019 34.0131 85.1439 33.3962 85.428 32.8686C85.7202 32.3411 86.122 31.9352 86.6333 31.6512C87.1528 31.3671 87.7453 31.225 88.4109 31.225C89.2631 31.225 89.9733 31.4482 90.5415 31.8947C91.1178 32.3411 91.4952 32.9701 91.6737 33.7818H89.4579C89.2712 33.2623 88.91 33.0026 88.3743 33.0026C87.9929 33.0026 87.6885 33.1527 87.4612 33.453C87.234 33.7452 87.1203 34.1673 87.1203 34.7192C87.1203 35.2712 87.234 35.6973 87.4612 35.9976C87.6885 36.2898 87.9929 36.4359 88.3743 36.4359C88.91 36.4359 89.2712 36.1762 89.4579 35.6567H91.6737C91.4952 36.4521 91.1178 37.0771 90.5415 37.5316C89.9652 37.9862 89.255 38.2134 88.4109 38.2134C87.7453 38.2134 87.1528 38.0714 86.6333 37.7873C86.122 37.5032 85.7202 37.0974 85.428 36.5698C85.1439 36.0422 85.0019 35.4254 85.0019 34.7192ZM96.0665 36.3507V38.116H95.0073C94.2524 38.116 93.664 37.9334 93.2419 37.5682C92.8198 37.1948 92.6088 36.5901 92.6088 35.7541V33.0513H91.7809V31.3224H92.6088V29.6667H94.6907V31.3224H96.0543V33.0513H94.6907V35.7784C94.6907 35.9814 94.7394 36.1275 94.8368 36.2167C94.9342 36.306 95.0965 36.3507 95.3238 36.3507H96.0665ZM108.471 29.5693V38.116H106.389V32.9904L104.477 38.116H102.797L100.873 32.9782V38.116H98.7916V29.5693H101.251L103.649 35.4863L106.023 29.5693H108.471ZM109.047 34.7071C109.047 34.009 109.176 33.3962 109.436 32.8686C109.704 32.3411 110.065 31.9352 110.52 31.6512C110.974 31.3671 111.481 31.225 112.042 31.225C112.52 31.225 112.938 31.3224 113.296 31.5172C113.661 31.712 113.941 31.9677 114.136 32.2843V31.3224H116.218V38.116H114.136V37.1542C113.933 37.4708 113.649 37.7264 113.283 37.9212C112.926 38.116 112.508 38.2134 112.029 38.2134C111.477 38.2134 110.974 38.0714 110.52 37.7873C110.065 37.4951 109.704 37.0852 109.436 36.5576C109.176 36.0219 109.047 35.4051 109.047 34.7071ZM114.136 34.7192C114.136 34.1998 113.99 33.7899 113.697 33.4896C113.413 33.1893 113.064 33.0391 112.65 33.0391C112.236 33.0391 111.883 33.1893 111.591 33.4896C111.307 33.7818 111.165 34.1876 111.165 34.7071C111.165 35.2265 111.307 35.6405 111.591 35.9489C111.883 36.2492 112.236 36.3994 112.65 36.3994C113.064 36.3994 113.413 36.2492 113.697 35.9489C113.99 35.6486 114.136 35.2387 114.136 34.7192ZM121.356 31.2494C122.151 31.2494 122.784 31.5091 123.255 32.0286C123.734 32.5399 123.973 33.2461 123.973 34.147V38.116H121.904V34.427C121.904 33.9725 121.786 33.6194 121.551 33.3678C121.315 33.1162 120.999 32.9904 120.601 32.9904C120.203 32.9904 119.887 33.1162 119.651 33.3678C119.416 33.6194 119.298 33.9725 119.298 34.427V38.116H117.216V31.3224H119.298V32.2234C119.509 31.9231 119.793 31.6877 120.151 31.5172C120.508 31.3387 120.909 31.2494 121.356 31.2494ZM131.317 34.6097C131.317 34.8045 131.305 35.0074 131.28 35.2184H126.569C126.601 35.6405 126.735 35.9651 126.97 36.1924C127.214 36.4115 127.51 36.5211 127.859 36.5211C128.379 36.5211 128.74 36.302 128.943 35.8637H131.159C131.045 36.3101 130.838 36.7119 130.538 37.069C130.246 37.4261 129.876 37.7061 129.43 37.9091C128.983 38.112 128.484 38.2134 127.932 38.2134C127.267 38.2134 126.674 38.0714 126.155 37.7873C125.635 37.5032 125.229 37.0974 124.937 36.5698C124.645 36.0422 124.499 35.4254 124.499 34.7192C124.499 34.0131 124.641 33.3962 124.925 32.8686C125.217 32.3411 125.623 31.9352 126.143 31.6512C126.662 31.3671 127.259 31.225 127.932 31.225C128.59 31.225 129.174 31.363 129.685 31.639C130.197 31.915 130.595 32.3086 130.879 32.82C131.171 33.3313 131.317 33.9279 131.317 34.6097ZM129.186 34.0618C129.186 33.7047 129.065 33.4206 128.821 33.2095C128.578 32.9985 128.273 32.893 127.908 32.893C127.559 32.893 127.263 32.9945 127.019 33.1974C126.784 33.4003 126.638 33.6884 126.581 34.0618H129.186ZM134.489 31.225C134.968 31.225 135.386 31.3224 135.743 31.5172C136.108 31.712 136.388 31.9677 136.583 32.2843V31.3224H138.665V38.1039C138.665 38.7288 138.539 39.2929 138.288 39.7962C138.044 40.3075 137.667 40.7133 137.155 41.0137C136.652 41.314 136.023 41.4641 135.268 41.4641C134.262 41.4641 133.446 41.2247 132.821 40.7458C132.196 40.275 131.839 39.6338 131.75 38.8222H133.807C133.872 39.0819 134.026 39.2848 134.27 39.4309C134.513 39.5851 134.814 39.6622 135.171 39.6622C135.601 39.6622 135.942 39.5364 136.193 39.2848C136.453 39.0413 136.583 38.6477 136.583 38.1039V37.142C136.38 37.4586 136.1 37.7183 135.743 37.9212C135.386 38.116 134.968 38.2134 134.489 38.2134C133.929 38.2134 133.422 38.0714 132.967 37.7873C132.513 37.4951 132.151 37.0852 131.884 36.5576C131.624 36.0219 131.494 35.4051 131.494 34.7071C131.494 34.009 131.624 33.3962 131.884 32.8686C132.151 32.3411 132.513 31.9352 132.967 31.6512C133.422 31.3671 133.929 31.225 134.489 31.225ZM136.583 34.7192C136.583 34.1998 136.437 33.7899 136.145 33.4896C135.861 33.1893 135.512 33.0391 135.098 33.0391C134.684 33.0391 134.331 33.1893 134.039 33.4896C133.754 33.7818 133.612 34.1876 133.612 34.7071C133.612 35.2265 133.754 35.6405 134.039 35.9489C134.331 36.2492 134.684 36.3994 135.098 36.3994C135.512 36.3994 135.861 36.2492 136.145 35.9489C136.437 35.6486 136.583 35.2387 136.583 34.7192ZM148.332 31.2494C149.177 31.2494 149.846 31.5051 150.341 32.0164C150.844 32.5278 151.096 33.238 151.096 34.147V38.116H149.026V34.427C149.026 33.9887 148.909 33.6519 148.673 33.4165C148.446 33.173 148.129 33.0513 147.724 33.0513C147.318 33.0513 146.997 33.173 146.762 33.4165C146.535 33.6519 146.421 33.9887 146.421 34.427V38.116H144.351V34.427C144.351 33.9887 144.234 33.6519 143.998 33.4165C143.771 33.173 143.454 33.0513 143.048 33.0513C142.643 33.0513 142.322 33.173 142.087 33.4165C141.859 33.6519 141.746 33.9887 141.746 34.427V38.116H139.664V31.3224H141.746V32.1747C141.957 31.8906 142.233 31.6674 142.574 31.5051C142.915 31.3346 143.3 31.2494 143.73 31.2494C144.242 31.2494 144.696 31.359 145.094 31.5781C145.5 31.7973 145.816 32.1097 146.044 32.5156C146.279 32.1422 146.599 31.8378 147.005 31.6025C147.411 31.3671 147.854 31.2494 148.332 31.2494ZM158.449 34.6097C158.449 34.8045 158.437 35.0074 158.412 35.2184H153.701C153.733 35.6405 153.867 35.9651 154.102 36.1924C154.346 36.4115 154.642 36.5211 154.991 36.5211C155.511 36.5211 155.872 36.302 156.075 35.8637H158.291C158.177 36.3101 157.97 36.7119 157.67 37.069C157.377 37.4261 157.008 37.7061 156.562 37.9091C156.115 38.112 155.616 38.2134 155.064 38.2134C154.399 38.2134 153.806 38.0714 153.287 37.7873C152.767 37.5032 152.361 37.0974 152.069 36.5698C151.777 36.0422 151.631 35.4254 151.631 34.7192C151.631 34.0131 151.773 33.3962 152.057 32.8686C152.349 32.3411 152.755 31.9352 153.275 31.6512C153.794 31.3671 154.391 31.225 155.064 31.225C155.722 31.225 156.306 31.363 156.817 31.639C157.329 31.915 157.726 32.3086 158.011 32.82C158.303 33.3313 158.449 33.9279 158.449 34.6097ZM156.318 34.0618C156.318 33.7047 156.196 33.4206 155.953 33.2095C155.709 32.9985 155.405 32.893 155.04 32.893C154.691 32.893 154.395 32.9945 154.151 33.1974C153.916 33.4003 153.77 33.6884 153.713 34.0618H156.318ZM163.179 31.2494C163.975 31.2494 164.608 31.5091 165.079 32.0286C165.557 32.5399 165.797 33.2461 165.797 34.147V38.116H163.727V34.427C163.727 33.9725 163.609 33.6194 163.374 33.3678C163.139 33.1162 162.822 32.9904 162.424 32.9904C162.027 32.9904 161.71 33.1162 161.475 33.3678C161.239 33.6194 161.122 33.9725 161.122 34.427V38.116H159.04V31.3224H161.122V32.2234C161.333 31.9231 161.617 31.6877 161.974 31.5172C162.331 31.3387 162.733 31.2494 163.179 31.2494ZM170.523 36.3507V38.116H169.464C168.709 38.116 168.12 37.9334 167.698 37.5682C167.276 37.1948 167.065 36.5901 167.065 35.7541V33.0513H166.237V31.3224H167.065V29.6667H169.147V31.3224H170.511V33.0513H169.147V35.7784C169.147 35.9814 169.196 36.1275 169.293 36.2167C169.39 36.306 169.553 36.3507 169.78 36.3507H170.523Z" fill="#302BED"/>
<path fill-rule="evenodd" clip-rule="evenodd" d="M31.9374 6.50139C31.9374 10.1813 29.205 13.7909 25.8344 14.5637C22.4638 15.3365 19.7313 12.9798 19.7313 9.29988C19.7313 5.61997 22.4638 2.01034 25.8344 1.23756C29.205 0.464781 31.9374 2.82148 31.9374 6.50139ZM8.74584 19.3832C12.1164 18.6104 14.8489 15.0008 14.8489 11.3209C14.8489 7.64099 12.1164 5.28429 8.74584 6.05707C5.37524 6.82985 2.64282 10.4395 2.64282 14.1194C2.64282 17.7993 5.37524 20.156 8.74584 19.3832ZM8.74584 37.1383C12.1164 36.3655 14.8489 32.7559 14.8489 29.076C14.8489 25.396 12.1164 23.0393 8.74584 23.8121C5.37524 24.5849 2.64282 28.1945 2.64282 31.8744C2.64282 35.5544 5.37524 37.9111 8.74584 37.1383ZM25.8344 32.3188C29.205 31.546 31.9374 27.9364 31.9374 24.2564C31.9374 20.5765 29.205 18.2198 25.8344 18.9926C22.4638 19.7654 19.7313 23.375 19.7313 27.0549C19.7313 30.7348 22.4638 33.0915 25.8344 32.3188Z" fill="url(#paint0_linear_4_533)" fill-opacity="0.9"/>
<path fill-rule="evenodd" clip-rule="evenodd" d="M38.5323 12.0816C38.5323 15.7615 35.7999 19.3711 32.4293 20.1439C29.0587 20.9167 26.3263 18.56 26.3263 14.88C26.3263 11.2001 29.0587 7.59051 32.4293 6.81773C35.7999 6.04495 38.5323 8.40165 38.5323 12.0816ZM15.3408 24.9634C18.7114 24.1906 21.4438 20.581 21.4438 16.9011C21.4438 13.2212 18.7114 10.8645 15.3408 11.6372C11.9702 12.41 9.23779 16.0196 9.23779 19.6996C9.23779 23.3795 11.9702 25.7362 15.3408 24.9634ZM15.3408 42.7184C18.7114 41.9457 21.4438 38.336 21.4438 34.6561C21.4438 30.9762 18.7114 28.6195 15.3408 29.3923C11.9702 30.1651 9.23779 33.7747 9.23779 37.4546C9.23779 41.1345 11.9702 43.4912 15.3408 42.7184ZM32.4293 37.8989C35.7999 37.1261 38.5323 33.5165 38.5323 29.8366C38.5323 26.1567 35.7999 23.8 32.4293 24.5728C29.0587 25.3455 26.3263 28.9552 26.3263 32.6351C26.3263 36.315 29.0587 38.6717 32.4293 37.8989Z" fill="url(#paint1_linear_4_533)" fill-opacity="0.9"/>
<path fill-rule="evenodd" clip-rule="evenodd" d="M16.5317 22.4483C16.5317 21.3118 16.5317 20.7436 16.7446 20.2495C16.9318 19.8149 17.2306 19.4202 17.5981 19.1221C18.0158 18.7831 18.5627 18.6288 19.6565 18.3204L42.6381 11.8389C43.7319 11.5304 44.2788 11.3762 44.6965 11.4795C45.064 11.5704 45.3628 11.7966 45.55 12.1256C45.7629 12.4996 45.7629 13.0678 45.7629 14.2042V38.0824C45.7629 39.2188 45.7629 39.787 45.55 40.2811C45.3628 40.7157 45.064 41.1104 44.6965 41.4086C44.2788 41.7476 43.7319 41.9018 42.6381 42.2103L19.6565 48.6918C18.5627 49.0003 18.0158 49.1545 17.5981 49.0512C17.2306 48.9603 16.9318 48.7341 16.7446 48.4051C16.5317 48.0311 16.5317 47.4628 16.5317 46.3264V22.4483Z" fill="url(#paint2_linear_4_533)" fill-opacity="0.9"/>
<path d="M25.7413 32.3877C25.2517 32.5258 24.7986 32.5616 24.382 32.4951C23.9654 32.4286 23.6216 32.2767 23.3508 32.0392C23.08 31.7909 22.9134 31.4646 22.8509 31.0601V27.1966C22.9134 26.7569 23.08 26.3312 23.3508 25.9193C23.6321 25.4937 23.9758 25.1262 24.382 24.8168C24.7986 24.4937 25.2517 24.2631 25.7413 24.125C26.4808 23.9165 27.1318 23.9114 27.6942 24.1099C28.2567 24.2976 28.6941 24.6612 29.0066 25.2008C29.3295 25.7374 29.491 26.4061 29.491 27.207C29.491 27.997 29.3295 28.7514 29.0066 29.4701C28.6941 30.1751 28.2567 30.7855 27.6942 31.3012C27.1318 31.817 26.4808 32.1792 25.7413 32.3877ZM25.2257 30.017C25.5277 29.9318 25.7933 29.7865 26.0225 29.5812C26.2516 29.3759 26.4287 29.1366 26.5537 28.8633C26.6787 28.5791 26.7412 28.2801 26.7412 27.9663C26.7412 27.6524 26.6787 27.3941 26.5537 27.1912C26.4287 26.9884 26.2516 26.849 26.0225 26.7729C25.7933 26.6968 25.5329 26.6999 25.2413 26.7822C24.9601 26.8615 24.7049 27.0038 24.4757 27.2091C24.2466 27.4036 24.0695 27.6429 23.9445 27.9271C23.8195 28.2004 23.757 28.494 23.757 28.8079C23.757 29.1217 23.8195 29.3855 23.9445 29.5991C24.0695 29.802 24.2414 29.9429 24.4601 30.0219C24.6893 30.0979 24.9445 30.0963 25.2257 30.017ZM21.1948 36.8679V25.5696L23.9133 24.8029V26.7996L23.4602 28.8429L23.8508 30.6645V36.1188L21.1948 36.8679Z" fill="white"/>
<defs>
<linearGradient id="paint0_linear_4_533" x1="17.2901" y1="3.06305" x2="23.8818" y2="33.9039" gradientUnits="userSpaceOnUse">
<stop stop-color="#5B75FF"/>
<stop offset="1" stop-color="#122CC4"/>
</linearGradient>
<linearGradient id="paint1_linear_4_533" x1="23.8851" y1="8.64322" x2="30.4768" y2="39.4841" gradientUnits="userSpaceOnUse">
<stop stop-color="#73E6FF"/>
<stop offset="1" stop-color="#2E4CE8"/>
</linearGradient>
<linearGradient id="paint2_linear_4_533" x1="45.8083" y1="10.9448" x2="14.3366" y2="47.7187" gradientUnits="userSpaceOnUse">
<stop stop-color="#001897"/>
<stop offset="1" stop-color="#4F6BFF"/>
</linearGradient>
</defs>
</svg>
